<svg width="2000" height="1618" viewBox="0 0 2000 1618" fill="none" xmlns="http://www.w3.org/2000/svg">
<rect width="2000" height="1618" fill="#0F0E0E" style="fill:#0F0E0E;fill:color(display-p3 0.0583 0.0554 0.0554);fill-opacity:1;"/>
<g clip-path="url(#clip0_6_660)">
<rect width="2000" height="1618" fill="#000306" style="fill:#000306;fill:color(display-p3 0.0000 0.0118 0.0235);fill-opacity:1;"/>
<g opacity="0.5" filter="url(#filter0_f_6_660)">
<path opacity="0.9" d="M319.853 645.375L204.559 816.271C194.666 830.936 192.015 849.286 197.372 866.026L281.757 1129.7C285.932 1142.74 294.657 1153.8 306.343 1160.87L512.818 1285.76C546.124 1305.91 589.631 1287.21 598.402 1248.98L656.52 995.658C663.749 964.153 695.438 944.597 726.596 952.413L920.272 1001C947.445 1007.82 975.719 993.805 986.994 967.933L1047 830.242C1064.04 791.135 1034.3 748.082 991.914 750.502L849.29 758.644C824.879 760.038 802.426 745.734 793.417 723.048L744.586 600.091C732.227 568.968 695.824 555.383 665.843 570.704L521.657 644.39C508.91 650.904 494.24 652.433 480.522 648.677L382.66 621.884C358.987 615.402 333.691 624.864 319.853 645.375Z" fill="#002B4B" style="fill:#002B4B;fill:color(display-p3 0.0000 0.1672 0.2950);fill-opacity:1;"/>
<path opacity="0.9" d="M1588.06 686.443L1718.1 734.05L1739.96 526.779L1475.63 502.813L1390.17 578.597L1505.44 639.807L1491.81 751.539L1588.06 686.443Z" fill="#FF51AF" style="fill:#FF51AF;fill:color(display-p3 1.0000 0.3176 0.6861);fill-opacity:1;"/>
<path opacity="0.9" d="M385.852 888.759L390.08 870.892C399.086 832.839 370.785 796.434 331.807 795.934L314.914 795.718C280.421 795.275 252.173 823.476 252.507 858.022L253.788 990.869C253.903 1002.72 258.622 1014.03 266.946 1022.39C290.243 1045.8 330.087 1037.06 341.852 1005.96L345.985 995.033C350.5 983.099 362.094 975.324 374.797 975.71C399.827 976.472 414.662 947.703 399.461 927.88L392.142 918.335C385.714 909.954 383.406 899.097 385.852 888.759Z" fill="#5151FF" style="fill:#5151FF;fill:color(display-p3 0.3176 0.3176 1.0000);fill-opacity:1;"/>
<path opacity="0.9" d="M996.88 839.241L1002.48 1086.75C1002.82 1101.75 1009.61 1115.71 1021.02 1124.87L1119.85 1204.22C1149.6 1228.1 1193.94 1209.37 1199.55 1170.55L1216.65 1052.16C1220.48 1025.67 1243.56 1006.39 1269.46 1008.05L1515.65 1023.75C1537.62 1025.15 1558.09 1011.41 1565.84 990.074L1660.06 730.679C1671.59 698.923 1650.57 665.194 1617.9 663.028L1440.59 651.276C1415.31 649.6 1392.56 667.902 1387.94 693.62L1373.58 773.733C1369.94 794.028 1354.78 810.283 1335.2 814.892L1152.97 857.771C1130.3 863.107 1107.36 851.591 1097.8 830.079L1091.25 815.351C1069.06 765.412 995.629 784.001 996.88 839.241Z" fill="#A245FF" style="fill:#A245FF;fill:color(display-p3 0.6354 0.2708 1.0000);fill-opacity:1;"/>
<ellipse cx="760.026" cy="867.949" rx="136.026" ry="143.949" fill="black" style="fill:black;fill-opacity:1;"/>
</g>
</g>
<defs>
<filter id="filter0_f_6_660" x="-77.4451" y="230.713" width="2089.51" height="1335.36" filterUnits="userSpaceOnUse" color-interpolation-filters="sRGB">
<feFlood flood-opacity="0" result="BackgroundImageFix"/>
<feBlend mode="normal" in="SourceGraphic" in2="BackgroundImageFix" result="shape"/>
<feGaussianBlur stdDeviation="136.05" result="effect1_foregroundBlur_6_660"/>
</filter>
<clipPath id="clip0_6_660">
<rect width="2000" height="1618" fill="white" style="fill:white;fill-opacity:1;"/>
</clipPath>
</defs>
</svg>
