
<svg xmlns="http://www.w3.org/2000/svg" xmlns:xlink="http://www.w3.org/1999/xlink" version="1.1" style="display: none;">
  <symbol id="plus" viewBox="0 0 24 24">
    <line x1="12.5" y1="4.5" x2="12.5" y2="18.5" stroke-linecap="round"/>
    <line x1="5.5" y1="11.5" x2="19.5" y2="11.5" stroke-linecap="round"/>
  </symbol>

  <symbol id="checkmark" viewBox="0 0 24 24">
    <path d="M7 12L10.5 15L17 9" stroke-linecap="round"/>
  </symbol>

  <symbol id="chevron-down" viewBox="0 0 24 24">
    <path d="M5.5 9.5L12 15.5L18.5 9.5" stroke-linecap="round"/>
  </symbol>

  <symbol id="chevron-up" viewBox="0 0 24 24">
    <path d="M5.5 15.5L12 9.5L18.5 15.5" stroke-linecap="round"/>
  </symbol>

  <symbol id="chevron-left" viewBox="0 0 24 24">
    <path d="M15 19L9 12.5L15 6" stroke-linecap="round"/>
  </symbol>

  <symbol id="chevron-right" viewBox="0 0 24 24">
    <path d="M9 19L15 12.5L9 6" stroke-linecap="round"/>
  </symbol>

  <symbol id="cross" viewBox="0 0 24 24">
    <path d="M18.3536 6.35355C18.5488 6.15829 18.5488 5.84171 18.3536 5.64645C18.1583 5.45118 17.8417 5.45118 17.6464 5.64645L18.3536 6.35355ZM5.64645 17.6464C5.45118 17.8417 5.45118 18.1583 5.64645 18.3536C5.84171 18.5488 6.15829 18.5488 6.35355 18.3536L5.64645 17.6464ZM6.35355 5.64645C6.15829 5.45118 5.84171 5.45118 5.64645 5.64645C5.45118 5.84171 5.45118 6.15829 5.64645 6.35355L6.35355 5.64645ZM17.6464 18.3536C17.8417 18.5488 18.1583 18.5488 18.3536 18.3536C18.5488 18.1583 18.5488 17.8417 18.3536 17.6464L17.6464 18.3536ZM17.6464 5.64645L5.64645 17.6464L6.35355 18.3536L18.3536 6.35355L17.6464 5.64645ZM5.64645 6.35355L17.6464 18.3536L18.3536 17.6464L6.35355 5.64645L5.64645 6.35355Z" />
  </symbol>

  <symbol id="code" viewBox="0 0 24 24">
    <path d="M8 19L2 12.5L8 6M16 19L22 12.5L16 6M14 10L9.5 14.5" stroke-linecap="round"/>
  </symbol>

  <symbol id="copy" viewBox="0 0 24 24">
    <path d="M20 15.5V8C20 6.34315 18.6569 5 17 5H10" stroke-linecap="round"/>
    <rect x="5.5" y="7.5" width="12" height="12" rx="1.5"/>
  </symbol>

  <symbol id="github" viewBox="0 0 24 24">
    <path d="M12.0099 0C5.36875 0 0 5.49998 0 12.3042C0 17.7432 3.43994 22.3472 8.21205 23.9767C8.80869 24.0991 9.02724 23.7119 9.02724 23.3862C9.02724 23.1009 9.00757 22.1232 9.00757 21.1044C5.6667 21.8379 4.97099 19.6377 4.97099 19.6377C4.43409 18.2117 3.63858 17.8452 3.63858 17.8452C2.54511 17.0914 3.71823 17.0914 3.71823 17.0914C4.93117 17.1729 5.56763 18.3544 5.56763 18.3544C6.64118 20.2284 8.37111 19.6989 9.06706 19.3729C9.16638 18.5784 9.48473 18.0284 9.82275 17.7229C7.15817 17.4377 4.35469 16.3784 4.35469 11.6522C4.35469 10.3077 4.8316 9.20771 5.58729 8.35222C5.46807 8.04672 5.0504 6.78347 5.70677 5.09273C5.70677 5.09273 6.72083 4.76673 9.00732 6.35572C9.98625 6.08639 10.9958 5.94938 12.0099 5.94823C13.024 5.94823 14.0577 6.09097 15.0123 6.35572C17.299 4.76673 18.3131 5.09273 18.3131 5.09273C18.9695 6.78347 18.5515 8.04672 18.4323 8.35222C19.2079 9.20771 19.6652 10.3077 19.6652 11.6522C19.6652 16.3784 16.8617 17.4172 14.1772 17.7229C14.6148 18.1099 14.9924 18.8432 14.9924 20.0044C14.9924 21.6544 14.9727 22.9787 14.9727 23.3859C14.9727 23.7119 15.1915 24.0991 15.7879 23.9769C20.56 22.3469 23.9999 17.7432 23.9999 12.3042C24.0196 5.49998 18.6312 0 12.0099 0Z" />
  </symbol>

  <symbol id="vue" viewBox="0 0 24 24">
    <path opacity="0.6" d="M14.0182 5L12 8.46364L9.98182 5H3.27273L12 20L20.7273 5H14.0182Z" fill="#EBEFFA"/>
    <path d="M14.0182 5L12 8.46364L9.98186 5H6.76368L12 14L17.2364 5H14.0182Z" fill="#EBEFFA"/>
  </symbol>

  <symbol id="react" viewBox="0 0 24 24">
    <path d="M17.42 9.86171C17.2408 9.80049 17.0603 9.74348 16.8785 9.69068C16.9086 9.56802 16.9364 9.44465 16.9619 9.32059C17.3719 7.32644 17.1038 5.7199 16.1888 5.19104C15.3126 4.68357 13.8757 5.21242 12.4262 6.47691C12.2836 6.60167 12.144 6.73018 12.0074 6.86242C11.9162 6.77457 11.8228 6.68859 11.727 6.60448C10.2077 5.25238 8.68494 4.68287 7.77092 5.21347C6.89475 5.722 6.63436 7.23216 7.0034 9.12222C7.04031 9.30914 7.08179 9.49524 7.12781 9.68052C6.91228 9.74185 6.7041 9.80739 6.50504 9.87678C4.72607 10.4989 3.58846 11.4742 3.58846 12.4856C3.58846 13.5307 4.80948 14.5786 6.6645 15.214C6.81496 15.2652 6.96683 15.3127 7.1201 15.3567C7.07034 15.555 7.0263 15.7556 6.98798 15.9584C6.63751 17.8159 6.91088 19.2903 7.78529 19.7957C8.68844 20.3175 10.2035 19.7813 11.6804 18.4881C11.7972 18.3858 11.914 18.2777 12.0308 18.1639C12.1785 18.3067 12.3304 18.4452 12.4864 18.5796C13.9163 19.8125 15.3284 20.3105 16.2014 19.8037C17.1038 19.2801 17.3972 17.696 17.0162 15.7688C16.987 15.6216 16.9534 15.4714 16.9153 15.3181C17.0218 15.2866 17.1262 15.254 17.2283 15.2203C19.1558 14.58 20.4115 13.5448 20.4115 12.4867C20.4108 11.4703 19.2368 10.4887 17.42 9.86171ZM12.8989 7.02013C14.1406 5.93684 15.3014 5.50927 15.8306 5.81487C16.3938 6.14046 16.6128 7.4533 16.2589 9.17515C16.2355 9.28729 16.2103 9.39909 16.1832 9.51054C15.4421 9.34199 14.6907 9.22304 13.9339 9.15447C13.5005 8.53024 13.0255 7.93602 12.512 7.37585C12.6377 7.25389 12.7665 7.13531 12.8982 7.02013H12.8989ZM8.55561 13.3499C8.70772 13.6443 8.86671 13.9351 9.0326 14.2222C9.20152 14.5152 9.37757 14.8039 9.56075 15.0882C9.03998 15.0316 8.52248 14.9482 8.01029 14.8383C8.15889 14.3575 8.34183 13.8581 8.55561 13.3499ZM8.55561 11.6561C8.34533 11.1588 8.1673 10.6695 8.02115 10.1971C8.50129 10.0895 9.01297 10.0015 9.54638 9.93496C9.36764 10.2139 9.19568 10.497 9.0305 10.7841C8.86531 11.0713 8.70667 11.3619 8.55456 11.6561H8.55561ZM8.93762 12.5032C9.15912 12.0413 9.39767 11.5882 9.65327 11.1441C9.90865 10.7001 10.1805 10.2664 10.4688 9.84278C10.9693 9.80493 11.4824 9.78496 12.0007 9.78496C12.519 9.78496 13.0353 9.80493 13.5354 9.84313C13.8207 10.2658 14.0909 10.698 14.346 11.1399C14.6012 11.5817 14.8429 12.0326 15.0711 12.4927C14.8459 12.9562 14.6048 13.4111 14.3478 13.8574C14.0929 14.3013 13.8242 14.7363 13.5417 15.1625C13.0423 15.1976 12.5253 15.2168 11.9996 15.2168C11.4739 15.2168 10.9668 15.2004 10.4765 15.1685C10.1861 14.7435 9.91204 14.3078 9.65433 13.8616C9.39662 13.4153 9.15737 12.9625 8.93657 12.5032H8.93762ZM14.9698 14.2173C15.1392 13.9234 15.3019 13.6256 15.4577 13.324C15.6713 13.8083 15.8599 14.3034 16.0226 14.8071C15.5044 14.9238 14.9805 15.0133 14.4529 15.0752C14.6309 14.7928 14.8033 14.5068 14.9698 14.2173ZM15.4507 11.6564C15.2955 11.3609 15.1342 11.0688 14.9667 10.7803C14.8031 10.4957 14.6327 10.2146 14.4554 9.93706C14.9919 10.005 15.5068 10.0955 15.9894 10.2059C15.8342 10.6981 15.6544 11.1822 15.4507 11.6564ZM12.0077 7.89069C12.3577 8.27308 12.6881 8.67289 12.9978 9.08858C12.3354 9.05704 11.6725 9.05704 11.0092 9.08858C11.3362 8.65611 11.6709 8.25482 12.0077 7.89069ZM8.1326 5.83625C8.69545 5.50962 9.93996 5.97644 11.2518 7.14244C11.3355 7.21709 11.42 7.29524 11.5041 7.3762C10.988 7.93629 10.5096 8.53 10.0721 9.15342C9.31691 9.22146 8.56697 9.33853 7.82699 9.50388C7.78424 9.33192 7.74569 9.15879 7.71134 8.98449C7.39417 7.36429 7.6041 6.14291 8.1326 5.83625ZM7.31216 14.6627C7.17197 14.6228 7.03354 14.5795 6.89686 14.5327C6.07677 14.2524 5.39931 13.8865 4.93425 13.488C4.51789 13.1309 4.30691 12.7744 4.30691 12.4856C4.30691 11.872 5.22023 11.089 6.74335 10.5581C6.93471 10.4915 7.1277 10.4306 7.32232 10.3755C7.54853 11.1025 7.82249 11.8137 8.14241 12.5046C7.81868 13.205 7.54133 13.9259 7.31216 14.6627ZM11.2069 17.9456C10.554 18.5175 9.9 18.923 9.32349 19.1273C8.8055 19.3106 8.393 19.3159 8.14382 19.1718C7.61321 18.8652 7.39242 17.681 7.69347 16.0927C7.72921 15.9057 7.7701 15.7188 7.81613 15.5319C8.56351 15.6929 9.32098 15.8028 10.0833 15.861C10.5251 16.4877 11.0074 17.0847 11.5272 17.6484C11.4228 17.7511 11.3159 17.8499 11.2069 17.9456ZM12.0277 17.1318C11.687 16.7634 11.3471 16.3559 11.0155 15.9178C11.3377 15.9304 11.6658 15.9367 11.9996 15.9367C12.3424 15.9367 12.6817 15.9293 13.016 15.9143C12.7075 16.3366 12.3776 16.743 12.0277 17.1318ZM16.3917 18.1338C16.2915 18.6749 16.0899 19.0359 15.8408 19.1803C15.3105 19.488 14.1767 19.0881 12.9543 18.0335C12.8141 17.913 12.6739 17.7837 12.5313 17.648C13.041 17.0822 13.512 16.4827 13.9412 15.8536C14.7078 15.7887 15.4689 15.671 16.2193 15.5014C16.2536 15.6402 16.284 15.7762 16.3104 15.9094C16.479 16.761 16.5031 17.5313 16.3917 18.1338ZM17.0015 14.5366C16.9097 14.5671 16.8151 14.5965 16.719 14.6252C16.4837 13.8949 16.1991 13.1813 15.867 12.4895C16.1866 11.8069 16.4601 11.1037 16.6857 10.3846C16.8578 10.4347 17.025 10.4873 17.1858 10.543C18.7426 11.0799 19.6924 11.8748 19.6924 12.4856C19.6924 13.1375 18.6666 13.9835 17.0015 14.5366Z" fill="#EBEFFA"/>
    <path d="M11.9996 13.9913C12.2979 13.9922 12.5898 13.9047 12.8382 13.7397C13.0867 13.5747 13.2806 13.3396 13.3954 13.0644C13.5102 12.7891 13.5408 12.4859 13.4832 12.1933C13.4256 11.9006 13.2825 11.6316 13.0719 11.4204C12.8613 11.2091 12.5928 11.0651 12.3004 11.0066C12.0079 10.948 11.7046 10.9776 11.429 11.0915C11.1533 11.2054 10.9177 11.3986 10.7519 11.6465C10.5861 11.8944 10.4975 12.186 10.4975 12.4842C10.4971 12.6819 10.5357 12.8776 10.6109 13.0603C10.6862 13.243 10.7968 13.4091 10.9363 13.5491C11.0758 13.689 11.2415 13.8001 11.424 13.876C11.6064 13.9519 11.802 13.991 11.9996 13.9913Z" fill="#EBEFFA"/>
  </symbol>

  <symbol id="next" viewBox="0 0 24 24">
    <path d="M16.1516 18.7471C14.9628 19.5387 13.5353 20 12 20C7.85786 20 4.5 16.6421 4.5 12.5C4.5 8.35786 7.85786 5 12 5C16.1421 5 19.5 8.35786 19.5 12.5C19.5 14.7352 18.5222 16.742 16.9711 18.116L15.1897 15.8213V9.39654H14.1552V14.4888L10.2019 9.39654H8.89655V15.6009H9.94083V10.7227L16.1516 18.7471Z" fill="#EBEFFA"/>
  </symbol>

  <symbol id="nuxt" viewBox="0 0 24 24">
    <path d="M13.2 18.7273H20.6C20.8361 18.7273 21.0622 18.6481 21.2667 18.5364C21.4712 18.4247 21.682 18.2844 21.8 18.0909C21.918 17.8974 22.0001 17.6779 22 17.4545C21.9999 17.2311 21.9182 17.0116 21.8 16.8182L16.8 8.6091C16.682 8.41563 16.5378 8.27533 16.3333 8.16362C16.1289 8.05195 15.8361 7.97271 15.6 7.97271C15.3639 7.97271 15.1378 8.05195 14.9333 8.16362C14.7289 8.27533 14.5847 8.41563 14.4667 8.6091L13.2 10.7091L10.6667 6.63621C10.5485 6.44278 10.4045 6.23895 10.2 6.12729C9.99547 6.01558 9.76948 6 9.53335 6C9.29722 6 9.07118 6.01558 8.86665 6.12729C8.66217 6.23895 8.45146 6.44278 8.33335 6.63621L2.13334 16.8182C2.01513 17.0116 2.0001 17.2311 2 17.4545C1.9999 17.6779 2.01531 17.8974 2.13334 18.0909C2.25136 18.2844 2.46217 18.4247 2.66667 18.5364C2.87117 18.6481 3.09718 18.7273 3.33334 18.7273H8C9.8491 18.7273 11.195 17.9355 12.1333 16.4364L14.4 12.6818L15.6 10.7091L19.2667 16.6909H14.4L13.2 18.7273ZM7.93335 16.6909H4.66665L9.53335 8.67272L12 12.6818L10.3661 15.4006C9.74297 16.3733 9.0325 16.6909 7.93335 16.6909Z" fill="#EBEFFA"/>
  </symbol>

  <symbol id="svelte" viewBox="0 0 24 24">
    <path fill-rule="evenodd" clip-rule="evenodd" d="M11.8008 5.66765C13.8232 4.4002 16.6206 4.99105 18.037 6.98468V6.9954C18.3731 7.45835 18.6119 7.98266 18.7393 8.53758C18.8668 9.0925 18.8803 9.66687 18.7792 10.227C18.6804 10.7616 18.4729 11.2711 18.1691 11.7249C18.6128 12.5569 18.7618 13.5107 18.5926 14.4354C18.4911 14.9831 18.275 15.5041 17.958 15.9654C17.6411 16.4267 17.2302 16.8181 16.7513 17.115L13.1995 19.3323C11.1771 20.5998 8.37971 20.0089 6.96333 18.0153C6.62695 17.5525 6.38801 17.0282 6.26054 16.4732C6.13308 15.9183 6.11967 15.3438 6.2211 14.7837C6.31882 14.249 6.52593 13.7394 6.82987 13.2858C6.3864 12.4533 6.23783 11.499 6.40768 10.574C6.50836 10.026 6.72411 9.50463 7.04115 9.04324C7.35819 8.58186 7.76956 8.19059 8.24897 7.89441L11.8008 5.66765ZM9.76245 18.1238C10.3041 18.3215 10.8943 18.351 11.4535 18.2082C11.7088 18.1407 11.9522 18.0355 12.1753 17.8961L15.7285 15.6693C16.0172 15.4906 16.2648 15.2546 16.4554 14.9763C16.6461 14.6981 16.7756 14.3838 16.8358 14.0535C16.8966 13.7167 16.8885 13.3714 16.8118 13.0378C16.7351 12.7042 16.5913 12.389 16.3891 12.1108C16.0601 11.6439 15.5933 11.2876 15.0519 11.0902C14.5104 10.8927 13.9204 10.8636 13.3615 11.0068C13.1059 11.0732 12.8623 11.1785 12.6397 11.319L11.2778 12.1684C11.2102 12.2099 11.1368 12.2415 11.0599 12.2622C10.8925 12.3037 10.7162 12.2942 10.5545 12.2348C10.3927 12.1755 10.2531 12.0691 10.1543 11.9299C10.0933 11.8458 10.0499 11.7506 10.0265 11.6499C10.0031 11.5492 10.0003 11.4449 10.0181 11.3431C10.0365 11.2437 10.0756 11.1492 10.1331 11.0655C10.1905 10.9818 10.265 10.9107 10.3517 10.8567L13.9049 8.63399C13.9723 8.59193 14.0458 8.5603 14.1229 8.5402C14.2895 8.49705 14.4655 8.50483 14.6275 8.56251C14.7896 8.62019 14.9299 8.72503 15.0299 8.86309C15.1388 9.01419 15.19 9.19833 15.1742 9.38294L15.162 9.51692L15.2982 9.55577C15.7972 9.70445 16.267 9.93551 16.6873 10.2391L16.8684 10.3731L16.9365 10.1721C16.9715 10.0654 16.9997 9.95664 17.021 9.84651C17.082 9.50975 17.0739 9.16438 16.9972 8.83074C16.9205 8.49709 16.7767 8.18192 16.5743 7.90379C16.2454 7.43679 15.7787 7.08037 15.2372 6.88269C14.6958 6.68501 14.1057 6.65561 13.5468 6.79845C13.2934 6.86582 13.0518 6.97063 12.8304 7.10929L9.27312 9.33605C8.98445 9.51478 8.73688 9.7508 8.54623 10.029C8.35557 10.3073 8.22603 10.6216 8.16589 10.9519C8.10444 11.2884 8.11194 11.6335 8.18795 11.9671C8.26396 12.3008 8.40694 12.6161 8.60851 12.8946C8.93746 13.3604 9.40357 13.716 9.94411 13.9133C10.4847 14.1107 11.0737 14.1405 11.6319 13.9986C11.8866 13.9316 12.1297 13.8267 12.3524 13.6877L13.7143 12.837C13.7816 12.7949 13.8551 12.7633 13.9322 12.7432C14.1006 12.7002 14.2783 12.709 14.4414 12.7684C14.6046 12.8278 14.7453 12.935 14.8447 13.0754C14.9059 13.1592 14.9495 13.2541 14.9729 13.3547C14.9963 13.4552 14.999 13.5593 14.9808 13.6609C14.9629 13.7606 14.9239 13.8555 14.8665 13.9395C14.809 14.0235 14.7343 14.0947 14.6472 14.1486L11.1008 16.3754C11.0333 16.4172 10.9599 16.4488 10.8829 16.4692C10.7145 16.5122 10.5368 16.5034 10.3736 16.4439C10.2105 16.3845 10.0698 16.2774 9.97041 16.1369C9.86136 15.9872 9.80886 15.8048 9.82196 15.6211L9.83422 15.4871L9.69803 15.4482C9.20075 15.3008 8.73245 15.0716 8.31298 14.7703L8.13048 14.6363L8.06375 14.8373C8.02763 14.9428 7.99941 15.0507 7.97931 15.1602C7.9181 15.4969 7.92596 15.8422 8.00244 16.1758C8.07892 16.5095 8.22248 16.8247 8.42465 17.1029C8.7539 17.5699 9.22084 17.9262 9.76245 18.1238Z" fill="#EBEFFA"/>
  </symbol>

  <symbol id="angular" viewBox="0 0 24 24">
    <path fill-rule="evenodd" clip-rule="evenodd" d="M5 7.48366L12.0573 5L19.16 7.43962L18.0452 16.6856L12.0648 20L6.11517 16.7299L5 7.48366ZM6 8.1525L11.9808 6L18 8.11433L17.0552 16.1275L11.9872 19L6.94506 16.1659L6 8.1525Z" fill="#EBEFFA"/>
    <path d="M13.5279 12.4675L12.0526 9.38662L10.7538 12.4675H13.5279ZM14.0904 13.763H10.1797L9.30475 15.9513L7.6774 15.9814L12.041 6.2742L16.5566 15.9813H15.0482L14.0904 13.763Z" fill="#F2F2F2"/>
    <path d="M12.0409 6.2742L12.0526 9.38662L13.5264 12.4699H12.0442L12.0409 13.7609L14.0903 13.7629L15.0481 15.9816L16.6053 16.0106L12.0409 6.2742Z" fill="#CDCDCD"/>
  </symbol>
</svg>
