
<svg xmlns="http://www.w3.org/2000/svg" xmlns:xlink="http://www.w3.org/1999/xlink" version="1.1" style="display: none;">
  <symbol id="plus" viewBox="0 0 24 24">
    <line x1="12.5" y1="4.5" x2="12.5" y2="18.5" stroke-linecap="round"/>
    <line x1="5.5" y1="11.5" x2="19.5" y2="11.5" stroke-linecap="round"/>
  </symbol>

  <symbol id="checkmark" viewBox="0 0 24 24">
    <path d="M7 12L10.5 15L17 9" stroke-linecap="round"/>
  </symbol>

  <symbol id="chevron-down" viewBox="0 0 24 24">
    <path d="M5.5 9.5L12 15.5L18.5 9.5" stroke-linecap="round"/>
  </symbol>

  <symbol id="chevron-up" viewBox="0 0 24 24">
    <path d="M5.5 15.5L12 9.5L18.5 15.5" stroke-linecap="round"/>
  </symbol>

  <symbol id="chevron-left" viewBox="0 0 24 24">
    <path d="M15 19L9 12.5L15 6" stroke-linecap="round"/>
  </symbol>

  <symbol id="chevron-right" viewBox="0 0 24 24">
    <path d="M9 19L15 12.5L9 6" stroke-linecap="round"/>
  </symbol>

  <symbol id="cross" viewBox="0 0 24 24">
    <path d="M18.3536 6.35355C18.5488 6.15829 18.5488 5.84171 18.3536 5.64645C18.1583 5.45118 17.8417 5.45118 17.6464 5.64645L18.3536 6.35355ZM5.64645 17.6464C5.45118 17.8417 5.45118 18.1583 5.64645 18.3536C5.84171 18.5488 6.15829 18.5488 6.35355 18.3536L5.64645 17.6464ZM6.35355 5.64645C6.15829 5.45118 5.84171 5.45118 5.64645 5.64645C5.45118 5.84171 5.45118 6.15829 5.64645 6.35355L6.35355 5.64645ZM17.6464 18.3536C17.8417 18.5488 18.1583 18.5488 18.3536 18.3536C18.5488 18.1583 18.5488 17.8417 18.3536 17.6464L17.6464 18.3536ZM17.6464 5.64645L5.64645 17.6464L6.35355 18.3536L18.3536 6.35355L17.6464 5.64645ZM5.64645 6.35355L17.6464 18.3536L18.3536 17.6464L6.35355 5.64645L5.64645 6.35355Z" />
  </symbol>

  <symbol id="code" viewBox="0 0 24 24">
    <path d="M8 19L2 12.5L8 6M16 19L22 12.5L16 6M14 10L9.5 14.5" stroke-linecap="round"/>
  </symbol>

  <symbol id="copy" viewBox="0 0 24 24">
    <path d="M20 15.5V8C20 6.34315 18.6569 5 17 5H10" stroke-linecap="round"/>
    <rect x="5.5" y="7.5" width="12" height="12" rx="1.5"/>
  </symbol>

  <symbol id="github" viewBox="0 0 24 24">
    <path d="M12.0099 0C5.36875 0 0 5.49998 0 12.3042C0 17.7432 3.43994 22.3472 8.21205 23.9767C8.80869 24.0991 9.02724 23.7119 9.02724 23.3862C9.02724 23.1009 9.00757 22.1232 9.00757 21.1044C5.6667 21.8379 4.97099 19.6377 4.97099 19.6377C4.43409 18.2117 3.63858 17.8452 3.63858 17.8452C2.54511 17.0914 3.71823 17.0914 3.71823 17.0914C4.93117 17.1729 5.56763 18.3544 5.56763 18.3544C6.64118 20.2284 8.37111 19.6989 9.06706 19.3729C9.16638 18.5784 9.48473 18.0284 9.82275 17.7229C7.15817 17.4377 4.35469 16.3784 4.35469 11.6522C4.35469 10.3077 4.8316 9.20771 5.58729 8.35222C5.46807 8.04672 5.0504 6.78347 5.70677 5.09273C5.70677 5.09273 6.72083 4.76673 9.00732 6.35572C9.98625 6.08639 10.9958 5.94938 12.0099 5.94823C13.024 5.94823 14.0577 6.09097 15.0123 6.35572C17.299 4.76673 18.3131 5.09273 18.3131 5.09273C18.9695 6.78347 18.5515 8.04672 18.4323 8.35222C19.2079 9.20771 19.6652 10.3077 19.6652 11.6522C19.6652 16.3784 16.8617 17.4172 14.1772 17.7229C14.6148 18.1099 14.9924 18.8432 14.9924 20.0044C14.9924 21.6544 14.9727 22.9787 14.9727 23.3859C14.9727 23.7119 15.1915 24.0991 15.7879 23.9769C20.56 22.3469 23.9999 17.7432 23.9999 12.3042C24.0196 5.49998 18.6312 0 12.0099 0Z" />
  </symbol>
</svg>
