<svg width="184" height="48" viewBox="0 0 184 48" fill="none" xmlns="http://www.w3.org/2000/svg">
<g clip-path="url(#clip0_1301_1287)">
<path d="M49.1507 21.8181C49.3607 21.8181 49.3607 21.8181 49.3607 21.8181C49.3607 21.8181 49.3607 22.0259 49.1507 22.2337C48.7306 22.6493 48.1005 23.0649 47.0502 23.6883C46.21 24.1039 45.3699 24.5194 44.5297 24.935C42.4292 25.974 40.7489 26.3896 39.2785 25.974C36.968 25.5584 36.1278 23.0649 36.758 18.7013C36.758 18.2857 36.968 17.6623 37.1781 16.8311C37.3881 16 37.3881 15.5844 37.5982 15.3766C37.8082 15.3766 37.8082 14.961 37.8082 14.5454V14.3376C37.8082 14.1298 37.8082 14.1298 37.8082 14.1298C37.8082 13.922 37.8082 13.922 37.8082 13.922H37.5982C37.5982 13.922 37.3881 13.922 37.1781 14.1298C36.758 14.3376 35.9178 14.961 35.0776 15.7922C34.0274 16.6233 33.3973 17.2467 32.9772 17.6623C31.2968 19.1168 29.8265 20.1558 28.5662 21.1948C27.726 21.8181 27.3059 22.2337 26.8858 22.4415C25.8356 23.0649 25.2055 23.0649 24.9954 22.6493C24.7854 22.4415 24.7854 22.0259 24.9954 21.4026C24.9954 20.987 24.9954 20.5714 25.2055 19.948C25.4155 19.1168 25.6256 18.2857 26.0457 17.0389C26.4658 16 26.8858 14.7532 27.3059 13.5065C27.726 12.2597 28.1461 10.8052 28.7763 9.5584C29.1963 8.31165 29.6164 7.0649 30.0365 6.02594C30.4566 4.77918 30.6667 3.94801 30.6667 3.32464C30.6667 2.70126 30.6667 2.28568 30.4566 2.28568C29.8265 2.07788 29.4064 2.07788 28.7763 2.28568C28.1461 2.49347 27.3059 2.90905 26.4658 3.74022C25.8356 4.3636 25.2055 4.98698 24.3653 5.61035C22.4749 7.68827 19.9543 10.5974 17.0137 14.5454C14.7032 17.6623 12.3927 20.7792 10.5023 24.1039C10.5023 24.5194 10.0822 24.935 9.6621 25.7662C11.1324 23.4805 12.3927 21.6103 13.653 19.948C14.7032 18.0779 16.5936 15.7922 18.9041 12.6753C21.0046 9.97399 22.895 7.68827 24.5753 6.02594C25.8356 4.77918 26.8858 3.94801 27.9361 3.32464C28.5662 2.90905 28.9863 2.70126 29.4064 2.70126C29.6164 2.70126 29.8265 2.70126 30.0365 2.70126C30.0365 2.70126 30.2466 2.90905 30.0365 3.11684C30.0365 3.32464 30.0365 3.74022 29.8265 4.15581C29.6164 4.98697 29.1963 6.02594 28.7763 7.48048C28.7763 7.48048 28.5662 8.10386 28.1461 9.35061C27.726 10.3896 27.516 11.2207 27.3059 11.8441C25.8356 15.7922 24.9954 18.7013 24.5753 20.3636C24.3653 21.1948 24.3653 22.0259 24.3653 22.4415C24.3653 23.2727 24.7854 23.8961 25.2055 23.8961C25.6256 24.1039 26.2557 23.8961 27.0959 23.2727C27.516 22.8571 28.1461 22.4415 28.9863 22.0259C29.6164 21.4026 30.4566 20.987 31.0868 20.3636C31.9269 19.7402 32.7671 19.1168 33.6073 18.2857C34.6575 17.4545 35.2877 16.8311 35.7078 16.4155C35.9178 16.2078 36.3379 16 36.3379 15.7922C36.5479 15.5844 36.758 15.5844 36.758 15.5844C36.758 15.5844 36.758 15.5844 36.758 15.7922V16C36.758 16.2078 36.758 16.2078 36.758 16.2078C36.5479 17.4545 36.1279 18.7013 36.1279 19.7402C35.7078 23.0649 36.1278 25.3506 37.5982 26.3896C38.4384 27.0129 39.4886 27.2207 40.7489 27.2207C41.379 27.2207 42.0091 27.0129 42.8493 26.8052C42.8493 26.8052 43.0594 26.8052 43.2694 26.5974C43.4795 26.5974 43.6895 26.3896 43.8995 26.3896C44.3196 26.3896 44.5297 26.1818 44.5297 26.1818C44.7397 26.1818 44.7397 26.1818 44.5297 26.3896C44.3196 26.5974 44.1096 26.5974 43.8995 26.8052C43.2694 27.0129 42.6393 27.2207 41.7991 27.4285C40.9589 27.6363 40.3288 27.6363 39.6986 27.6363C38.4384 27.4285 37.5982 27.0129 36.758 26.1818C36.1278 25.3506 35.7078 24.3116 35.4977 22.8571C35.2877 21.8181 35.4977 20.3636 35.7078 18.9091C35.7078 18.4935 35.7078 18.0779 35.7078 17.6623L35.9178 16.8311C35.9178 16.8311 35.9178 16.8311 35.7078 16.8311L35.4977 17.0389L35.2877 17.2467C32.5571 19.5324 30.6667 21.1948 29.8265 22.0259C28.5662 23.0649 27.516 23.6883 26.8858 24.1039C26.2557 24.5194 25.6256 24.7272 24.9954 24.5194C24.3653 24.5194 23.9452 24.1039 23.5251 23.4805C23.3151 22.8571 23.105 22.2337 23.3151 20.987C23.5251 19.948 23.7352 18.7013 24.1552 17.2467C24.5753 15.7922 25.4155 13.2987 26.6758 9.5584C27.3059 7.68827 27.726 6.44152 27.9361 5.81814C28.1461 4.98697 28.3562 4.3636 28.5662 3.94801V3.74022C28.5662 3.74022 28.5662 3.74022 28.3562 3.74022C27.726 4.15581 26.6758 4.98698 25.4155 6.02594C24.5753 6.8571 23.7352 7.89607 22.6849 8.93503C21.0046 10.8052 19.3242 12.8831 17.8539 15.1688C17.4338 16 16.5936 17.2467 15.5434 18.7013C14.4931 20.3636 13.863 21.1948 13.653 21.6103C11.9726 23.8961 10.5023 26.1818 9.24201 28.2597C8.82192 28.8831 8.61187 29.5065 8.40183 29.922C8.19178 30.3376 8.19178 30.5454 8.19178 30.961C7.77169 32 7.56164 32.8311 7.3516 33.4545C7.14155 34.0779 6.72146 34.2857 6.51142 34.4935C6.30137 34.7013 5.88128 34.7013 5.46119 34.7013C5.0411 34.7013 4.83105 34.2857 4.621 34.0779C4.41096 33.6623 4.41096 33.0389 4.621 32.4155C4.83105 31.7922 5.25114 30.961 5.67123 30.1298C5.88128 29.5065 6.09132 29.0909 6.30137 28.6753C6.72146 27.2207 6.93151 26.1818 7.14155 25.1428C7.56164 23.0649 8.19178 20.7792 8.61187 18.0779C9.03196 15.3766 9.24201 12.8831 9.24201 10.8052C9.24201 7.89606 9.03196 5.61035 8.40183 3.94801C7.98173 2.90905 7.3516 2.07788 6.51142 1.87009C5.67123 1.45451 4.83105 1.6623 3.57078 2.49347C3.36073 2.49347 3.15068 2.70126 3.15068 2.90905C2.94064 3.11684 2.52055 3.53243 1.89041 4.15581C1.47032 4.77918 1.05023 5.19477 1.05023 5.19477C0.420091 5.81814 0.210046 6.02594 0 5.81814V5.61035C0 4.98698 0.420091 4.3636 0.840183 3.53243C1.89041 1.87009 3.15068 0.623339 4.621 0.207754C6.30137 -0.20783 7.56164 -3.77377e-05 8.82192 1.03892C9.45205 1.87009 10.0822 2.70126 10.5023 3.94801C10.9224 5.40256 11.3425 6.8571 11.3425 8.72723C11.3425 10.1818 11.3425 12.0519 11.1324 14.3376C10.9224 16 10.7123 17.8701 10.5023 19.7402C10.2922 20.7792 10.2922 21.6103 10.0822 22.4415C12.3927 19.1168 14.4931 16 16.3836 13.5065C19.3242 9.7662 21.6347 6.8571 23.3151 4.98698C24.9954 3.32464 26.2557 2.28568 27.516 1.45451C28.1461 1.03892 28.7763 0.831131 29.4064 0.831131C30.4566 0.623339 31.0868 1.03892 31.5068 1.6623C31.5068 2.49347 31.5068 3.32464 31.0868 4.3636C31.0868 4.57139 30.8767 4.77918 30.8767 5.19477C30.4566 6.44152 30.0365 8.10386 29.1963 10.1818C29.1963 10.3896 28.7763 11.2207 28.3562 12.6753C27.726 13.922 27.3059 14.961 27.3059 15.5844C27.0959 16.2078 26.8858 16.8311 26.6758 18.0779C26.4658 19.1168 26.2557 20.1558 26.0457 20.987C26.0457 21.4026 26.0457 21.6103 26.0457 21.6103C26.0457 21.8181 26.0457 22.0259 26.2557 22.0259H26.4658C26.8858 21.8181 27.516 21.4026 28.5662 20.5714C29.1963 20.1558 30.6667 18.909 32.9772 17.0389C33.1872 16.8311 33.3973 16.6233 33.6073 16.4155C33.8173 16.2078 34.0274 16 34.2374 15.7922C34.4475 15.5844 34.6575 15.3766 34.8676 15.1688C35.0776 14.961 35.2877 14.7532 35.4977 14.5454C36.3379 13.922 36.968 13.5065 37.1781 13.2987C37.5982 13.0909 37.8082 13.0909 38.2283 13.0909C38.4384 13.0909 38.6484 13.0909 38.6484 13.2987V13.5065C38.6484 13.7142 38.6484 13.922 38.6484 14.1298C38.6484 14.1298 38.6484 14.1298 38.6484 14.3376V14.5454C38.6484 14.5454 38.6484 14.5454 38.6484 14.7532C38.6484 14.961 38.4384 15.5844 38.2283 16.8311C38.0183 17.8701 37.8082 18.7013 37.8082 19.5324C37.5982 20.3636 37.5982 21.1948 37.8082 22.0259C37.8082 23.8961 38.4384 25.1428 39.4886 25.5584C40.1187 25.7662 40.7489 25.974 41.589 25.7662C42.4292 25.7662 43.2694 25.5584 44.1096 25.1428C45.5799 24.5194 47.2603 23.6883 48.9406 22.4415C48.9406 22.0259 49.1507 21.8181 49.1507 21.8181Z" fill="#E8E8E8"/>
<path d="M64.0639 23.6883C64.274 23.6883 64.274 23.6883 64.484 23.6883C64.484 23.6883 64.694 23.8961 64.484 23.8961C64.484 24.1039 64.0639 24.1039 63.8539 24.3117C62.8036 24.7272 61.7534 24.935 60.4931 25.1428C60.4931 25.3506 60.4931 25.7662 60.4931 25.974C60.7032 25.974 60.9132 25.974 61.1233 25.974C61.5434 25.974 61.9635 25.7662 62.3835 25.7662C62.3835 25.7662 62.5936 25.7662 62.8036 25.5584C63.0137 25.5584 63.2237 25.3506 63.2237 25.3506C63.2237 25.3506 63.4338 25.3506 63.6438 25.3506C63.8539 25.5584 63.8539 25.5584 63.6438 25.5584C63.6438 25.5584 63.4338 25.7662 63.2237 25.7662C62.8036 25.974 62.3835 25.974 61.9635 25.974C61.5434 26.1818 60.9132 26.1818 60.4931 26.1818C60.2831 27.2207 59.653 28.0519 59.0228 28.8831C58.3927 29.5065 57.7625 29.922 57.1324 30.1298C56.2922 30.3376 55.6621 30.3376 54.8219 30.3376C53.9817 30.1298 53.3516 29.922 52.9315 29.2987C52.3014 28.6753 52.0913 28.0519 51.8813 27.2207C51.8813 26.5974 51.8813 26.1818 52.0913 25.5584C51.2511 25.1428 50.831 24.7272 50.4109 24.1039C50.2009 23.4805 49.9908 22.8571 50.2009 22.2337C50.4109 21.6104 50.621 20.987 51.0411 20.5714C51.4612 19.948 52.3014 19.5324 52.9315 19.3246C53.7717 19.1168 54.6119 18.9091 55.242 18.9091C56.5023 18.9091 57.7625 19.5324 58.8128 20.5714C59.4429 21.1948 59.863 21.8181 60.2831 22.4415C60.4931 23.0649 60.7032 23.6883 60.7032 24.3117C60.9132 24.3117 61.1233 24.3117 61.5434 24.1039C61.9635 24.1039 62.1735 24.1039 62.3835 23.8961C62.5936 24.3117 63.2237 24.1039 64.0639 23.6883ZM51.2511 24.7272C51.4612 24.935 51.6712 25.1428 52.0913 25.3506C52.0913 25.1428 52.3014 24.935 52.3014 24.7272C52.0913 24.5194 51.6712 24.3117 51.4612 24.1039C51.0411 23.4805 51.0411 23.0649 51.2511 22.6493C51.4612 22.2337 51.8813 21.8181 52.3014 21.4026C52.7214 20.987 53.3516 20.7792 54.1918 20.5714C55.0319 20.3636 55.8721 20.3636 56.2922 20.5714C57.5525 20.987 58.3927 21.8181 59.0228 23.2727C59.2329 23.6883 59.2329 24.3117 59.2329 24.7272C59.2329 23.4805 58.8128 22.6493 58.1826 21.8181C57.7625 21.4026 57.1324 20.987 56.5023 20.5714C55.8721 20.1558 55.242 20.1558 54.4018 20.1558C53.5616 20.1558 52.7214 20.5714 52.0913 20.987C51.4612 21.4026 50.831 22.0259 50.621 22.6493C50.2009 23.4805 50.4109 24.1039 51.2511 24.7272ZM52.3014 23.6883C52.5114 23.6883 52.7214 23.8961 52.9315 23.8961C53.1415 23.6883 53.1415 23.4805 53.3516 23.4805C53.3516 23.4805 53.5616 23.4805 53.5616 23.2727C53.7717 23.0649 53.9817 22.8571 54.1918 22.6493C54.4018 22.4415 54.8219 22.6493 55.0319 22.6493L55.242 22.8571C55.242 22.8571 55.242 23.0649 55.242 23.2727C55.242 23.4805 55.0319 23.4805 55.0319 23.4805L54.8219 23.6883C54.8219 23.8961 54.6119 23.8961 54.6119 23.8961C54.6119 23.8961 54.6119 23.8961 54.4018 24.1039C54.6119 24.1039 55.242 24.3117 55.8721 24.3117C56.5023 24.3117 57.1324 24.5194 57.9726 24.5194C57.9726 23.4805 57.3424 22.4415 56.5023 21.8181C56.0822 21.6104 55.8721 21.4026 55.452 21.1948C54.8219 20.987 54.1918 21.1948 53.3516 21.4026C52.7214 21.6104 52.3014 22.0259 52.0913 22.4415C52.0913 22.6493 51.8813 22.6493 51.8813 22.6493C51.8813 23.2727 51.8813 23.4805 52.3014 23.6883ZM53.7717 28.0519C54.1918 28.4675 54.8219 28.6753 55.452 28.6753C56.2922 28.4675 56.9224 28.0519 57.3424 27.013C56.0822 27.013 55.0319 27.013 53.9817 26.8052C53.7717 26.8052 53.5616 26.8052 53.3516 26.8052C53.3516 27.2207 53.3516 27.6363 53.7717 28.0519ZM57.7625 25.7662V25.5584C57.5525 25.5584 57.5525 25.5584 57.3424 25.5584C56.5023 25.5584 55.6621 25.5584 55.242 25.5584C54.8219 25.5584 54.4018 25.3506 53.7717 25.3506C53.5616 25.5584 53.5616 25.7662 53.5616 25.974C54.1918 26.1818 54.8219 26.3896 55.6621 26.3896C56.2922 26.3896 56.9224 26.5974 57.5525 26.3896C57.7625 26.1818 57.7625 25.974 57.7625 25.7662ZM59.2329 25.5584C59.2329 25.7662 59.2329 25.974 59.2329 26.1818C59.2329 25.7662 59.2329 25.7662 59.2329 25.5584Z" fill="#E8E8E8"/>
<path d="M76.8767 23.8961C76.2466 24.1039 75.4064 24.1039 74.5662 24.1039C74.5662 24.3117 74.3562 24.7273 74.3562 24.9351C74.7763 24.9351 75.1964 24.9351 75.8265 24.9351C76.4566 24.9351 77.2968 24.7273 77.927 24.5195C77.927 24.5195 77.927 24.5195 78.137 24.5195C78.137 24.5195 78.347 24.5195 78.347 24.3117H78.5571H78.7671C78.9772 24.5195 78.9772 24.5195 78.5571 24.7273C77.2968 25.3507 76.0365 25.5584 74.5662 25.5584C74.3562 25.5584 74.3562 25.5584 74.1461 25.5584C73.9361 26.1818 73.516 27.013 72.8859 27.6364C72.2557 28.4675 71.8356 29.0909 71.6256 29.2987C71.6256 29.2987 71.4155 29.5065 71.2055 29.7143C70.9955 29.9221 70.9955 30.1299 70.7854 30.3377C70.5754 30.5455 70.5754 30.5455 70.3653 30.7533C69.3151 31.7922 68.2649 32 67.4247 31.5844C66.5845 31.1688 65.9544 30.3377 65.5343 28.6753C65.5343 28.4675 65.3242 27.6364 65.3242 26.5974C65.3242 25.974 65.3242 25.3507 65.3242 24.3117C65.3242 23.6883 65.5343 23.0649 65.7443 22.2338C65.9544 21.4026 66.1644 20.7792 66.5845 20.3636C66.5845 20.3636 66.5845 20.1558 66.7945 20.1558C67.0046 19.9481 67.2146 19.7403 67.4247 19.5325C67.6347 19.5325 67.8448 19.5325 67.8448 19.5325C68.0548 19.5325 68.0548 19.7403 68.0548 19.9481V20.1558V20.3636V20.5714V20.7792V20.987C68.0548 21.1948 68.0548 21.1948 68.0548 21.4026C68.0548 21.6104 68.0548 21.6104 68.0548 21.8182C68.0548 22.026 68.0548 22.026 68.0548 22.2338C67.8448 23.2727 67.8448 24.3117 67.8448 25.1429C68.0548 26.1818 68.0548 27.2208 68.4749 27.8442C68.4749 28.052 68.6849 28.4675 68.895 28.6753C68.895 28.6753 69.105 28.6753 69.3151 28.4675C69.9452 27.8442 70.5754 27.2208 70.9954 26.3896C71.4155 25.7662 71.8356 24.9351 72.2557 24.1039C72.0457 24.1039 72.0457 23.8961 72.0457 23.8961C71.6256 23.2727 71.4155 22.6494 71.6256 22.026C71.8356 21.4026 72.0457 20.7792 72.6758 20.3636C73.0959 19.9481 73.516 19.7403 73.9361 19.7403C74.3562 19.7403 74.7763 19.9481 75.1964 20.3636C75.6165 20.987 75.6165 21.8182 75.4064 23.0649C75.8265 23.0649 76.0366 23.0649 76.4566 23.0649C77.0868 22.8571 77.2968 22.8571 77.5069 22.8571C77.927 22.8571 78.3471 22.6494 78.5571 22.6494C78.7671 22.6494 79.1872 22.4416 79.6073 22.026C79.8174 22.026 79.8174 22.026 79.8174 22.026C79.8174 22.026 79.8174 22.2338 79.8174 22.4416C79.8174 22.4416 79.6073 22.6494 79.1872 22.8571C78.9772 23.0649 78.7671 23.0649 78.5571 23.0649C77.927 23.6883 77.5069 23.8961 76.8767 23.8961ZM72.8859 25.974C72.8859 25.974 73.0959 25.5584 73.306 25.3507C73.0959 25.3507 73.0959 25.3507 72.8859 25.3507C72.4658 26.1818 72.2557 27.013 71.8356 27.6364C71.4155 28.4675 70.7854 29.0909 70.1553 29.7143C69.9452 30.1299 69.5251 30.3377 69.105 30.5455C68.685 30.7533 68.4749 30.7533 68.2649 30.7533C68.4749 30.7533 68.6849 30.7533 68.895 30.7533C69.3151 30.5455 69.9452 30.1299 70.5754 29.7143C70.7854 29.2987 71.2055 28.8831 71.8356 28.052C72.2557 27.2208 72.6758 26.5974 72.8859 25.974ZM72.0457 22.2338C71.6256 22.8571 71.6256 23.4805 72.0457 23.8961C72.2557 23.4805 72.2557 23.0649 72.4658 23.0649C72.4658 23.0649 72.4658 23.0649 72.4658 22.8571C72.4658 22.6494 72.4658 22.4416 72.6758 22.2338C72.6758 22.026 72.6758 22.026 72.6758 22.026H72.8859C72.8859 22.026 73.0959 22.026 73.0959 21.8182C73.306 21.6104 73.516 21.6104 73.516 21.6104C73.516 21.6104 73.516 21.8182 73.516 22.2338C73.516 22.4416 73.726 22.6494 73.516 22.6494C73.516 22.8571 73.516 23.0649 73.516 23.0649C73.516 23.0649 73.516 23.2727 73.726 23.2727H73.9361C74.1461 22.8571 74.1461 22.4416 74.1461 22.026C74.1461 21.6104 74.1461 21.4026 73.9361 21.1948C73.726 20.987 73.516 20.987 73.306 20.987C73.0959 21.1948 72.4658 21.6104 72.0457 22.2338ZM73.0959 24.5195C73.306 24.5195 73.306 24.5195 73.516 24.7273C73.726 24.5195 73.726 24.3117 73.726 24.1039C73.516 24.1039 73.306 24.1039 73.306 23.8961C73.0959 24.1039 73.0959 24.3117 73.0959 24.5195Z" fill="#E8E8E8"/>
<path d="M90.5297 25.1428C90.5297 25.1428 90.5297 25.3506 90.3196 25.5584C90.3196 25.5584 90.3196 25.5584 90.1096 25.7662C90.1096 25.7662 90.1096 25.974 89.8996 25.974C89.8996 25.974 89.8996 26.1818 89.6895 26.1818C88.8493 27.4285 88.4292 28.0519 88.2192 28.2597C87.5891 29.0909 86.9589 29.5065 86.5388 29.922C85.2786 30.961 84.0183 31.3766 82.968 31.1688C82.3379 31.1688 81.9178 30.961 81.4977 30.7532C81.2877 30.5454 80.8676 30.3376 80.6575 29.922C80.4475 29.7143 80.4475 29.5065 80.2375 29.2987C80.0274 29.0909 80.0274 28.6753 80.0274 28.0519C80.0274 27.2207 80.0274 26.3896 80.2375 25.5584C80.2375 25.5584 80.2375 25.3506 80.4475 25.3506C80.4475 25.3506 80.4475 25.1428 80.6575 25.1428C80.6575 25.1428 80.6575 24.935 80.8676 24.935C80.8676 24.935 80.8676 24.7272 81.0776 24.7272C81.0776 24.7272 81.0776 24.5194 81.2877 24.1039C81.2877 23.8961 81.4977 23.6883 81.4977 23.4805C81.4977 23.2727 81.7078 22.8571 81.9178 22.4415C81.9178 22.2337 82.1279 22.0259 82.1279 21.8181C82.3379 21.6104 82.3379 21.4026 82.3379 21.4026C82.3379 21.4026 82.3379 21.4026 82.3379 21.1948C82.548 20.987 82.758 20.987 82.968 20.987C83.1781 20.987 83.3881 21.1948 83.5982 21.4026C83.5982 21.4026 83.5982 21.6104 83.5982 21.8181C83.5982 21.8181 83.5982 22.0259 83.5982 22.2337C83.5982 22.4415 83.5982 22.8571 83.3881 23.2727C83.1781 23.8961 82.968 24.5194 82.968 25.3506C82.758 25.974 82.758 26.1818 82.758 26.3896C82.758 26.5974 82.758 26.5974 82.758 27.013C82.758 27.2207 82.758 27.4285 82.758 27.6363C82.758 27.8441 82.758 28.2597 82.758 28.4675C82.758 28.6753 82.968 28.8831 82.968 28.8831C83.3881 29.0909 83.8082 29.0909 84.4384 28.8831H84.6484C84.8585 28.8831 84.8585 28.8831 84.8585 28.8831C85.0685 28.8831 85.2786 28.6753 85.4886 28.2597C85.6986 28.0519 86.1187 27.6363 86.9589 27.013C87.169 26.8052 87.379 26.5974 87.5891 26.3896C87.5891 26.3896 87.7991 26.1818 87.7991 25.974C87.7991 25.7662 88.0091 25.7662 88.0091 25.5584C88.0091 25.3506 88.2192 25.3506 88.4292 25.1428C88.6393 24.935 88.6393 24.935 88.8493 24.935C88.8493 24.935 89.0594 24.7272 89.2694 24.5194C89.4795 24.3117 89.4795 24.3117 89.4795 24.1039H89.6895L89.8996 24.3117C89.8996 24.3117 89.8996 24.5194 89.6895 24.5194C89.6895 24.5194 89.4795 24.7272 89.4795 24.935C89.4795 25.1428 89.2694 25.1428 89.0594 25.3506C88.8493 25.5584 88.8493 25.7662 88.6393 25.7662C88.6393 25.7662 88.4292 25.974 88.2192 26.1818C88.0091 26.3896 88.0091 26.3896 87.7991 26.5974C87.7991 26.5974 87.5891 26.8052 87.5891 27.013C87.379 27.2207 87.379 27.4285 87.379 27.4285C87.379 27.4285 87.169 27.6363 86.9589 27.8441C86.7489 28.0519 86.7489 28.0519 86.5388 28.2597C86.5388 28.2597 86.3288 28.4675 86.3288 28.6753C86.1187 28.8831 86.1187 28.8831 86.1187 29.0909L85.9087 29.2987C85.9087 29.2987 85.6986 29.2987 85.6986 29.5065C85.6986 29.5065 85.4886 29.5065 85.4886 29.7143C85.4886 29.7143 85.2785 29.7143 85.2785 29.922C84.8585 30.1298 84.6484 30.3376 84.4384 30.3376C83.5982 30.7532 82.968 30.7532 82.548 30.7532C81.9178 30.7532 81.7078 30.3376 81.2877 29.922C81.0776 29.7143 81.0776 29.2987 81.0776 28.8831C81.0776 28.8831 81.0776 28.6753 81.0776 28.4675C81.0776 29.0909 81.0776 29.5065 81.2877 29.922C81.4977 30.3376 81.9178 30.7532 82.548 30.961C82.968 30.961 83.5982 30.961 84.4384 30.7532C84.8585 30.7532 85.2786 30.5454 85.4886 30.3376C85.6986 30.1298 85.9087 29.922 86.3288 29.7143C86.5388 29.5065 86.7489 29.2987 87.169 29.0909C87.5891 28.6753 87.7991 28.4675 88.0091 28.2597C88.4292 27.6363 88.6393 27.4285 88.6393 27.4285C88.8493 27.2207 89.0594 26.8052 89.2694 26.3896C90.1096 24.935 90.3196 24.935 90.3196 24.935C90.5297 24.935 90.5297 24.935 90.5297 25.1428ZM85.6986 17.2467C85.9087 17.8701 85.6986 18.2857 85.0685 18.4935C84.4384 18.7013 84.0183 18.4935 83.5982 18.0779C83.3881 17.6623 83.1781 17.2467 83.3881 16.6233C83.5982 16 84.0183 15.7922 84.4384 15.7922C84.6484 15.7922 84.8585 15.7922 85.0685 16C85.2785 16.2078 85.4886 16.2078 85.4886 16.4156C85.6986 16.6233 85.6986 16.8311 85.4886 17.0389C85.4886 17.0389 85.4886 17.0389 85.2785 17.0389C85.2785 16.8311 85.2785 16.6233 85.0685 16.6233C85.0685 16.4156 84.8585 16.4156 84.6484 16.4156C84.4384 16.4156 84.2283 16.4156 84.0183 16.4156C84.0183 16.4156 84.0183 16.6233 83.8082 17.0389C83.8082 17.4545 83.8082 17.6623 84.2283 17.6623C84.0183 17.4545 84.0183 17.0389 84.2283 16.8311C84.4384 16.6233 84.6484 16.4156 84.8585 16.6233C85.2786 16.8311 85.0685 16.8311 84.6484 16.8311C84.4384 17.0389 84.4384 17.0389 84.6484 17.2467C84.6484 17.2467 84.8585 17.2467 85.0685 17.2467C85.2785 17.2467 85.4886 17.0389 85.4886 17.0389C85.4886 17.0389 85.6986 17.0389 85.6986 17.2467Z" fill="#E8E8E8"/>
<path d="M105.023 25.1428C104.183 25.7662 103.552 26.1818 102.922 26.3896C102.082 26.8052 101.242 27.013 100.822 27.013C100.192 26.8052 99.7717 26.1818 99.9817 25.1428C99.9817 24.7273 100.192 24.1039 100.402 23.2727C100.402 23.0649 100.402 23.0649 100.612 22.8571C100.612 22.6493 100.612 22.4415 100.822 22.4415C100.822 22.2338 100.822 22.2338 101.032 22.026C101.032 21.8182 101.032 21.6104 101.032 21.6104C101.032 21.4026 101.032 21.4026 101.032 21.1948C101.032 20.987 100.822 20.7792 100.822 20.7792C100.612 20.7792 100.612 20.7792 100.402 20.7792C100.192 20.7792 99.9817 20.987 99.9817 21.1948C99.7717 21.4026 99.7717 21.4026 99.5616 21.6104C99.1415 22.026 98.5114 22.6493 97.8812 23.4805C97.8812 23.4805 97.4612 24.1039 96.4109 25.5584C96.2009 25.7662 95.7808 26.1818 95.1507 27.013C94.5205 27.6364 94.1004 28.2597 93.8904 28.6753C94.1004 28.4675 94.3105 28.2597 94.5205 27.8441C94.7306 27.4286 94.9406 27.2208 95.1507 27.013C95.7808 26.3896 96.4109 25.5584 96.831 24.9351C97.0411 24.7273 97.2511 24.5195 97.4612 24.1039C98.3013 23.2727 98.7214 22.8571 98.7214 22.6493C98.9315 22.4415 98.9315 22.4415 99.1415 22.2338C99.3516 22.026 99.5616 22.026 99.5616 22.026H99.7717V22.2338V22.4415V22.6493V22.8571C99.7717 23.2727 99.5616 23.6883 99.5616 24.1039C99.3516 24.5195 99.3516 24.9351 99.3516 25.3506C99.3516 25.974 99.3516 26.3896 99.3516 26.8052C99.5616 27.4286 99.7717 27.6364 100.402 27.8441C100.822 28.0519 101.452 28.0519 101.872 27.8441C102.292 27.6364 102.922 27.6364 103.342 27.2208C103.763 27.013 103.973 26.8052 104.393 26.5974C104.603 26.3896 104.813 26.3896 104.813 26.3896C105.023 26.3896 105.023 26.5974 104.813 26.5974C104.813 26.5974 104.603 26.8052 104.393 27.013C104.183 27.2208 103.973 27.2208 103.973 27.4286C103.552 27.6364 103.132 27.8441 102.712 28.0519C102.082 28.4675 101.452 28.4675 100.822 28.4675C99.9817 28.4675 99.1415 28.0519 98.7214 27.2208C98.5114 26.8052 98.3013 26.1818 98.3013 25.5584C98.3013 25.1428 98.3013 24.9351 98.5114 24.5195V24.3117C98.5114 24.3117 98.5114 24.3117 98.5114 24.1039C98.5114 24.1039 98.5114 24.1039 98.3013 24.3117C98.0913 24.7273 97.6712 24.9351 97.6712 25.1428C97.0411 25.974 96.621 26.5974 96.2009 27.2208C95.5707 28.0519 94.9406 29.0909 93.8904 30.1299C93.2602 30.7532 92.6301 31.1688 92.21 31.1688C91.7899 31.1688 91.5799 31.1688 91.3698 30.961C91.1598 30.7532 91.1598 30.3377 91.1598 30.1299C91.1598 29.7143 91.1598 29.2987 91.1598 28.8831C91.1598 28.4675 91.3698 28.0519 91.3698 27.8441C91.3698 27.6364 91.5799 27.2208 91.7899 26.5974C92 25.974 92 25.5584 92.21 25.5584C92.4201 24.9351 92.4201 24.5195 92.6301 23.8961C92.8401 23.6883 92.8402 23.2727 93.0502 22.6493C93.2602 22.026 93.4703 21.6104 93.4703 21.4026V21.1948C93.4703 20.987 93.6803 20.987 93.6803 20.7792C93.8904 20.5714 94.1004 20.5714 94.3105 20.3636C94.5205 20.3636 94.7306 20.3636 94.9406 20.5714C95.1507 20.7792 95.1507 20.987 95.1507 21.4026C95.1507 21.6104 94.9406 22.026 94.9406 22.6493C94.9406 22.8571 94.7306 23.6883 94.3105 25.1428V25.3506C94.3105 25.5584 94.3105 25.5584 94.3105 25.5584V25.7662C94.3105 25.974 94.3105 25.974 94.5205 25.974C94.5205 25.974 94.7306 25.974 94.7306 25.7662V25.974L94.9406 25.7662L95.1507 25.5584C95.5707 25.1428 95.7808 24.7273 96.2009 24.3117C96.621 23.8961 97.0411 23.2727 97.4612 22.6493C98.0913 21.8182 98.7214 21.4026 99.1415 20.987C99.9817 20.1558 100.822 19.7402 101.452 20.1558C101.872 20.3636 102.082 20.5714 102.292 21.1948C102.502 21.6104 102.502 22.026 102.292 22.4415C102.292 22.8571 102.082 23.0649 102.082 23.6883C101.662 24.9351 101.452 25.974 101.452 26.3896C101.452 26.5974 101.452 26.8052 101.662 26.8052C101.662 26.8052 101.872 27.013 102.082 26.8052C102.292 26.8052 102.502 26.8052 102.502 26.5974C102.712 26.5974 102.922 26.3896 103.132 26.3896C103.342 26.3896 103.342 26.1818 103.552 26.1818C104.393 25.7662 104.813 25.7662 104.813 25.5584C105.023 25.3506 105.443 25.1428 106.073 24.7273C106.073 24.7273 106.283 24.7273 106.493 24.7273C105.653 24.5195 105.443 24.7273 105.023 25.1428Z" fill="#E8E8E8"/>
<path d="M126.027 22.8572C126.237 22.8572 126.237 22.8572 126.447 23.065C126.447 23.065 126.447 23.065 126.447 23.2728C126.447 23.4805 126.237 23.4805 126.027 23.4805C125.817 23.4805 125.607 23.4805 125.397 23.4805C125.187 23.4805 124.977 23.4805 124.977 23.4805C124.767 23.4805 124.767 23.4805 124.557 23.4805C124.347 23.4805 124.347 23.4805 124.137 23.4805C123.927 23.4805 123.927 23.4805 123.717 23.4805C123.297 23.4805 122.877 23.4805 122.247 23.4805C122.247 23.6883 122.247 24.1039 122.247 24.3117C122.457 24.3117 122.667 24.3117 122.877 24.3117C123.087 24.3117 123.297 24.3117 123.297 24.3117C123.927 24.3117 124.347 24.3117 124.347 24.3117C124.557 24.3117 124.557 24.5195 124.347 24.7273C124.347 24.7273 124.137 24.7273 123.927 24.7273C123.717 24.7273 123.507 24.7273 123.297 24.7273C123.087 24.7273 123.087 24.7273 122.877 24.7273C122.667 24.7273 122.667 24.7273 122.457 24.7273C122.247 24.7273 122.247 24.7273 122.037 24.7273C122.037 26.5974 121.826 28.2598 121.406 29.5065C120.776 31.1689 119.936 32.4156 118.676 33.039C117.836 33.4546 117.205 33.4546 116.365 33.2468C115.525 33.039 114.895 32.6234 114.475 32.2078C113.845 31.5844 113.425 30.9611 113.005 30.3377C112.795 30.1299 112.795 29.9221 112.795 29.7143C112.795 29.7143 112.795 29.7143 112.795 29.5065V29.2987L112.584 29.5065C112.374 29.7143 112.374 29.9221 112.164 29.9221C111.744 30.3377 111.324 30.5455 110.694 30.7533C110.274 30.9611 109.644 30.7533 109.224 30.7533C108.804 30.5455 108.384 30.3377 107.963 29.9221C107.333 29.2987 107.123 28.2598 107.123 26.8052C107.123 25.7663 107.333 24.7273 107.753 23.6883C108.174 22.4416 108.804 21.4026 109.224 20.7792C109.224 20.7792 109.224 20.7792 109.224 20.5715C109.434 20.1559 109.644 19.9481 109.854 19.9481C110.274 19.7403 110.484 19.7403 110.694 19.9481C110.904 20.1559 110.904 20.3637 110.694 20.5715C110.694 20.7792 110.484 20.987 110.484 21.1948C110.484 21.4026 110.274 21.6104 110.274 21.6104C110.274 21.8182 110.064 22.2338 109.854 22.6494C109.434 24.1039 109.014 24.9351 109.014 24.9351C108.804 25.9741 108.594 26.8052 108.594 27.4286C108.594 27.8442 108.804 28.052 108.804 28.4676C109.014 28.6754 109.224 28.8831 109.644 28.6754C109.854 28.4676 110.274 28.2598 110.694 27.6364C110.904 27.4286 110.904 27.2208 111.324 26.5974C111.534 26.1818 111.744 25.9741 111.954 25.7663C112.374 25.3507 112.795 25.3507 113.425 25.5585C113.635 25.5585 113.845 25.7663 114.055 26.1818C114.265 26.3896 114.265 26.5974 114.265 27.013C114.475 28.052 114.895 29.0909 115.315 29.7143C115.735 30.5455 116.365 30.9611 116.785 30.9611C117.416 30.9611 117.836 30.5455 118.466 29.9221C118.676 29.2987 118.886 28.6754 119.096 27.8442C119.306 26.8052 119.516 25.9741 119.516 25.5585C119.516 25.3507 119.516 25.1429 119.516 24.9351C118.676 24.9351 118.046 24.5195 117.626 24.1039C116.995 23.4805 116.785 22.8572 116.785 22.2338C116.785 21.4026 116.995 20.7792 117.626 20.3637C118.256 19.9481 118.886 19.7403 119.726 20.1559C120.566 20.3637 120.986 20.7792 121.406 21.6104C121.616 22.026 121.616 22.4416 121.826 23.065C122.037 23.065 122.457 23.065 122.877 23.065C123.297 23.065 123.717 23.065 123.927 23.065C124.137 23.065 124.347 23.065 124.767 23.065C125.397 22.8572 125.607 22.8572 126.027 22.8572ZM120.986 27.4286C121.196 26.3896 121.196 25.5585 121.196 24.9351C120.986 24.9351 120.776 24.9351 120.566 24.9351C120.566 25.1429 120.566 25.5585 120.566 25.7663C120.566 27.013 120.356 27.6364 120.356 28.2598C120.146 30.1299 119.306 31.5844 118.256 32.2078C117.626 32.6234 116.995 32.6234 116.155 32.2078C115.525 32 115.105 31.3766 114.475 30.7533C114.055 30.1299 113.845 29.5065 113.425 28.6754C113.425 28.4676 113.425 28.4676 113.215 28.2598C113.215 28.052 113.215 28.052 113.005 27.8442C113.005 27.6364 113.005 27.6364 112.795 27.4286C112.795 27.6364 112.795 27.8442 112.795 27.8442C113.005 28.4676 113.215 29.0909 113.425 29.9221C113.845 30.7533 114.265 31.3766 114.685 31.7922C115.315 32.4156 115.945 32.6234 116.785 32.6234C117.626 32.6234 118.256 32.4156 118.676 31.7922C119.096 31.3766 119.516 30.7533 119.936 29.9221C120.776 28.8831 120.986 28.2598 120.986 27.4286ZM118.676 21.4026C118.886 21.1948 119.306 21.1948 119.516 21.4026C119.936 21.6104 120.146 21.8182 120.146 22.2338C120.146 22.4416 120.356 22.6494 120.356 23.065C120.566 23.065 120.776 23.065 120.986 23.065C120.986 22.2338 120.776 21.6104 120.356 21.1948C119.726 20.5715 119.096 20.5715 118.466 20.987C117.836 21.4026 117.626 21.8182 117.836 22.4416C117.836 23.065 118.256 23.6883 118.676 23.8961C118.886 24.1039 119.306 24.3117 119.726 24.3117C119.726 23.8961 119.726 23.6883 119.726 23.4805C119.516 23.4805 119.306 23.2728 119.096 23.2728C118.886 23.065 118.676 22.8572 118.466 22.4416C118.256 22.026 118.256 21.6104 118.676 21.4026ZM119.096 22.026V22.2338C119.096 22.4416 119.096 22.4416 119.306 22.4416L119.516 22.6494C119.516 22.4416 119.516 22.2338 119.306 22.2338C119.306 22.2338 119.306 22.2338 119.096 22.026ZM120.986 23.4805C120.776 23.4805 120.566 23.4805 120.356 23.4805C120.356 23.6883 120.356 24.1039 120.356 24.3117C120.566 24.3117 120.566 24.3117 120.776 24.3117C120.776 24.3117 120.776 24.1039 120.776 23.8961C120.986 23.6883 120.986 23.6883 120.986 23.4805Z" fill="#0095D0"/>
<path d="M140.731 23.6883C140.941 23.6883 140.941 23.6883 141.151 23.6883C141.151 23.6883 141.361 23.8961 141.151 23.8961C141.151 24.1039 140.731 24.1039 140.521 24.3117C139.47 24.7273 138.42 24.9351 137.16 25.1429C137.16 25.3507 137.16 25.7663 137.16 25.9741C137.37 25.9741 137.58 25.9741 137.79 25.9741C138.21 25.9741 138.63 25.7663 139.05 25.7663C139.05 25.7663 139.26 25.7663 139.47 25.5585C139.68 25.5585 139.89 25.3507 139.89 25.3507C139.89 25.3507 140.1 25.3507 140.311 25.3507C140.521 25.5585 140.521 25.5585 140.311 25.5585C140.311 25.5585 140.1 25.7663 139.89 25.7663C139.47 25.9741 139.05 25.9741 138.63 25.9741C138.21 26.1818 137.58 26.1818 137.16 26.1818C136.95 27.2208 136.32 28.052 135.689 28.8831C135.059 29.5065 134.429 29.9221 133.799 30.1299C132.959 30.3377 132.329 30.3377 131.489 30.3377C130.648 30.1299 130.018 29.9221 129.598 29.2987C128.968 28.6754 128.758 28.052 128.548 27.2208C128.548 26.5974 128.548 26.1818 128.758 25.5585C127.918 25.1429 127.498 24.7273 127.078 24.1039C126.868 23.4805 126.658 22.8572 126.868 22.2338C127.078 21.6104 127.288 20.987 127.708 20.5715C128.128 19.9481 128.968 19.5325 129.598 19.3247C130.438 19.1169 131.279 18.9091 131.909 18.9091C133.169 18.9091 134.429 19.5325 135.479 20.5715C136.11 21.1948 136.53 21.8182 136.95 22.4416C137.16 23.065 137.37 23.6883 137.37 24.3117C137.58 24.3117 137.79 24.3117 138.21 24.1039C138.63 24.1039 138.84 24.1039 139.05 23.8961C139.26 24.3117 139.89 24.1039 140.731 23.6883ZM127.708 24.7273C127.918 24.9351 128.128 25.1429 128.548 25.3507C128.548 25.1429 128.758 24.9351 128.758 24.7273C128.548 24.5195 128.128 24.3117 127.918 24.1039C127.498 23.4805 127.498 23.065 127.708 22.6494C127.918 22.2338 128.338 21.8182 128.758 21.4026C129.178 20.987 129.808 20.7792 130.648 20.5715C131.489 20.3637 132.329 20.3637 132.749 20.5715C134.009 20.987 134.849 21.8182 135.479 23.2728C135.689 23.6883 135.689 24.3117 135.689 24.7273C135.689 23.4805 135.269 22.6494 134.639 21.8182C134.219 21.4026 133.589 20.987 132.959 20.5715C132.329 20.1559 131.699 20.1559 130.858 20.1559C130.018 20.1559 129.178 20.5715 128.548 20.987C127.918 21.4026 127.288 22.026 127.078 22.6494C126.868 23.4805 127.078 24.1039 127.708 24.7273ZM128.758 23.6883C128.968 23.6883 129.178 23.8961 129.388 23.8961C129.598 23.6883 129.598 23.4805 129.808 23.4805C129.808 23.4805 130.018 23.4805 130.018 23.2728C130.228 23.065 130.438 22.8572 130.648 22.6494C130.858 22.4416 131.279 22.6494 131.489 22.6494L131.699 22.8572C131.699 22.8572 131.699 23.065 131.699 23.2728C131.699 23.4805 131.489 23.4805 131.489 23.4805L131.279 23.6883L131.068 23.8961C131.068 23.8961 131.068 23.8961 130.858 24.1039C131.068 24.1039 131.699 24.3117 132.329 24.3117C132.959 24.3117 133.589 24.5195 134.429 24.5195C134.429 23.4805 133.799 22.4416 132.959 21.8182C132.539 21.6104 132.329 21.4026 131.909 21.1948C131.279 20.987 130.648 21.1948 129.808 21.4026C129.178 21.6104 128.758 22.026 128.548 22.4416C128.548 22.6494 128.338 22.6494 128.338 22.6494C128.548 23.2728 128.548 23.4805 128.758 23.6883ZM130.228 28.052C130.648 28.4676 131.279 28.6754 131.909 28.6754C132.749 28.4676 133.379 28.052 133.799 27.013C132.539 27.013 131.489 27.013 130.438 26.8052C130.228 26.8052 130.018 26.8052 129.808 26.8052C130.018 27.2208 130.018 27.6364 130.228 28.052ZM134.429 25.7663V25.5585C134.219 25.5585 134.219 25.5585 134.009 25.5585C133.169 25.5585 132.329 25.5585 131.909 25.5585C131.489 25.5585 131.068 25.3507 130.438 25.3507C130.228 25.5585 130.228 25.7663 130.228 25.9741C130.858 26.1818 131.489 26.3896 132.329 26.3896C132.959 26.3896 133.589 26.5974 134.219 26.3896C134.429 26.1818 134.429 25.9741 134.429 25.7663ZM135.9 25.5585C135.9 25.7663 135.9 25.9741 135.9 26.1818C135.689 25.7663 135.9 25.7663 135.9 25.5585Z" fill="#0095D0"/>
<path d="M154.384 25.5584C154.384 25.5584 154.384 25.7662 154.384 26.1818C154.384 26.3896 154.174 26.5974 153.963 27.013C153.333 28.2597 152.703 29.5065 152.283 30.3377C151.443 31.5844 150.813 32.6234 149.973 33.2468C149.132 34.0779 148.082 34.2857 147.242 34.0779C145.772 33.6623 145.142 32.2078 145.142 29.5065C145.142 28.2597 145.352 27.013 145.772 25.7662C145.982 25.1429 146.192 24.5195 146.402 24.1039C146.402 24.1039 146.402 24.1039 146.402 23.8961L146.612 23.6883V23.4805L146.402 23.6883C146.402 23.6883 146.402 23.6883 146.402 23.4805L146.192 23.6883L145.982 23.8961C145.772 24.1039 145.562 24.1039 145.562 24.1039C145.352 24.3117 144.721 24.7273 144.091 24.9351C142.621 25.7662 141.571 25.7662 140.941 24.9351C140.731 24.3117 140.521 23.8961 140.521 23.2727C140.521 22.6494 140.731 22.026 141.151 21.6104C141.361 20.987 141.781 20.7792 142.201 20.3636C142.621 20.1558 143.041 20.1558 143.671 20.3636C144.301 20.7792 144.511 21.4026 143.881 22.4416C143.881 22.4416 144.091 22.4416 144.091 22.2338C144.511 21.8182 144.932 21.4026 145.562 20.7792C146.192 20.1558 146.612 19.7403 146.822 19.5325C148.082 18.7013 148.712 18.2857 149.132 18.0779C149.973 17.8701 150.393 18.0779 150.603 18.7013C150.813 19.1169 150.813 19.7403 150.393 20.7792C150.393 20.987 150.183 21.4026 149.973 22.026C149.763 22.6494 149.553 22.8571 149.553 23.0649C149.342 23.6883 148.922 24.3117 148.922 24.9351C148.502 26.1818 148.082 27.6364 147.872 29.2987C147.662 30.3377 147.662 31.1688 147.872 31.5844C148.082 32 148.292 31.7922 148.712 31.3766C149.132 30.961 149.763 30.3377 150.393 29.7143C151.023 29.0909 151.233 28.2597 151.653 27.6364C151.863 27.2208 152.283 26.5974 152.913 25.5584C153.123 25.3506 153.123 25.1429 153.333 24.9351C153.543 24.7273 153.543 24.5195 153.753 24.1039C153.963 23.8961 153.963 23.4805 154.174 23.4805C154.384 23.2727 154.384 23.2727 154.594 23.2727C154.594 23.2727 154.804 23.4805 154.594 23.6883C154.594 23.8961 154.594 24.1039 154.384 24.3117C154.384 24.3117 154.174 24.5195 154.174 24.9351C153.963 25.5584 153.753 25.974 153.543 26.1818C152.913 27.2208 152.493 28.0519 152.073 28.6753C152.073 28.8831 151.863 29.0909 151.653 29.5065C151.443 29.9221 151.233 30.3377 151.023 30.5455C150.813 30.7532 150.813 30.961 150.393 31.3766C150.183 31.7922 149.973 32 149.553 32.2078C149.342 32.4156 148.922 32.6234 148.712 32.6234C148.292 32.8312 147.872 32.8312 147.662 32.4156C147.452 32.2078 147.242 31.7922 147.242 31.1688C147.242 30.5455 147.242 30.1299 147.242 29.7143C147.242 29.2987 147.242 28.8831 147.452 28.4675C147.662 26.8052 148.082 25.1429 148.502 23.6883C148.712 22.8571 149.132 22.026 149.763 20.987C149.973 20.3636 150.183 19.9481 150.183 19.7403C150.183 19.3247 149.973 19.5325 149.342 19.9481C149.132 20.1558 148.922 20.3636 148.502 20.5714C148.502 20.5714 148.502 20.5714 148.712 20.3636C148.712 20.3636 148.922 20.3636 148.922 20.1558C149.342 19.7403 149.553 19.7403 149.763 19.5325C149.973 19.5325 149.973 19.5325 149.973 19.5325C149.973 19.5325 149.973 19.7403 149.973 19.9481C149.973 20.1558 149.553 20.7792 149.132 21.6104C148.712 22.4416 148.292 23.2727 147.872 24.5195C147.662 24.9351 147.452 25.974 147.032 27.4286C146.612 28.8831 146.612 30.1299 146.612 31.1688C146.822 32.4156 147.242 33.039 148.082 33.2468C148.922 33.4545 149.763 33.039 150.813 31.7922C151.233 31.3766 151.863 30.5455 152.283 29.7143C152.493 29.5065 152.493 29.2987 152.703 28.8831C152.913 28.4675 153.123 28.2597 153.123 28.0519C153.333 27.6364 153.543 27.013 153.963 26.3896C153.963 26.1818 153.963 26.1818 154.174 26.1818C154.174 26.1818 154.174 25.974 154.384 25.974C154.384 25.974 154.384 25.7662 154.594 25.7662C154.594 25.7662 154.594 25.7662 154.804 25.5584C154.174 25.5584 154.174 25.5584 154.384 25.5584Z" fill="#0095D0"/>
<path d="M170.347 3.53249C170.347 3.74028 170.347 3.94808 170.347 3.94808C170.347 4.15587 170.347 4.36366 170.347 4.36366C170.347 4.57145 170.347 4.77924 170.137 4.98704C170.137 5.19483 170.137 5.40262 170.137 5.40262C170.137 5.40262 169.927 6.026 169.717 7.48054C169.717 7.48054 169.507 8.93509 169.087 11.4286C168.877 11.8442 168.877 12.4676 168.667 13.0909C168.457 13.7143 168.457 14.3377 168.247 14.9611C168.037 15.5844 168.037 16.2078 167.827 16.6234C167.616 17.2468 167.616 18.0779 167.406 19.3247C167.196 20.5715 167.196 21.4026 166.986 21.8182C166.776 23.065 166.356 24.7273 166.146 27.013C165.936 27.6364 165.936 28.4676 165.726 29.5065C165.516 30.5455 165.306 31.5844 165.306 32.2078C165.096 32.8312 165.096 33.6624 164.886 34.7013C164.676 35.7403 164.676 36.5714 164.466 37.4026C164.466 38.2338 164.046 39.8961 163.626 42.3896C163.416 43.013 163.416 43.8442 163.206 45.0909C162.995 46.3377 162.995 46.9611 162.785 47.5844C162.785 48 162.575 48.2078 162.575 48.2078C162.575 48.2078 162.365 48.2078 162.365 48C162.365 47.5844 162.365 47.3766 162.365 47.3766C162.365 47.3766 162.365 47.1688 162.365 46.7533C162.365 46.3377 162.575 46.1299 162.575 46.1299C163.206 41.5585 163.836 38.2338 164.046 35.7403C164.256 34.7013 164.466 32.8312 164.886 30.5455C164.886 30.1299 165.306 28.4676 165.726 25.3507C165.726 25.1429 165.936 24.7273 165.936 24.5195C165.936 24.5195 165.936 24.5195 165.726 24.3117C165.726 24.3117 165.516 24.1039 165.306 23.8961C165.096 25.5585 164.886 26.5974 164.676 27.4286C164.256 29.7143 164.046 31.1689 163.836 32.2078C163.626 33.2468 163.416 34.7013 163.206 36.7792C162.995 38.8572 162.575 40.3117 162.575 41.1429C162.575 41.7663 162.365 42.3896 162.365 43.013C162.365 43.2208 162.365 43.4286 162.365 43.6364C162.365 44.052 162.155 44.052 162.155 44.2598H161.945C161.945 44.2598 161.945 44.052 161.945 43.8442C161.945 43.6364 161.945 43.6364 161.945 43.4286V43.2208C162.155 42.3896 162.575 39.2728 163.206 33.6624C163.626 30.3377 164.046 27.8442 164.256 26.1818C164.256 25.7663 164.466 24.9351 164.466 24.1039C164.046 24.9351 163.836 25.7663 163.416 26.3896C163.206 27.013 162.785 27.4286 162.365 27.8442C161.945 28.2598 161.525 28.8831 161.105 29.2987C160.685 29.7143 160.055 30.1299 159.635 30.3377C159.215 30.5455 158.584 30.7533 157.954 30.7533C157.324 30.7533 156.694 30.7533 156.274 30.3377C155.644 29.9221 155.224 29.5065 155.014 28.6753C154.804 28.052 154.804 27.2208 155.014 26.3896C155.434 24.9351 156.274 23.4805 157.744 22.2338C159.005 21.1948 160.265 20.5715 161.735 20.3637C162.155 20.3637 162.785 20.3637 163.206 20.5714C163.416 19.9481 163.626 19.3247 163.836 18.7013C164.256 17.4546 164.676 15.7922 165.306 13.7143C165.936 10.3896 166.356 8.7273 166.566 8.31171C166.566 8.10392 166.776 7.68833 166.776 7.06496C166.986 6.44158 166.986 6.026 167.196 5.81821C167.406 4.77924 167.616 3.94808 167.827 3.53249C168.037 2.90911 168.457 2.70132 168.877 2.49353C169.297 2.49353 169.507 2.49353 169.927 2.70132C170.347 2.90911 170.347 3.11691 170.347 3.53249ZM161.945 23.065C162.155 22.6494 162.365 22.2338 162.575 21.6104C162.365 21.6104 162.155 21.6104 162.155 21.6104C161.105 21.6104 160.055 22.026 159.215 22.8572C158.795 23.2727 158.374 23.6883 157.954 24.3117C157.324 25.1429 157.114 25.7663 156.904 26.3896C156.694 27.2208 156.904 27.8442 157.744 27.8442C158.374 28.052 159.005 27.6364 159.635 27.013C160.475 26.3896 161.315 24.9351 161.945 23.065ZM167.616 14.7533C167.616 14.7533 167.616 14.5455 167.616 14.3377C167.616 14.1299 167.616 14.1299 167.616 13.9221C167.406 14.5455 167.406 14.9611 167.196 15.7922C166.776 17.4546 166.356 18.4935 166.146 19.5325C165.936 20.7792 165.936 21.4026 165.726 21.8182C165.936 22.026 166.146 22.2338 166.146 22.4416C166.356 21.4026 166.356 20.5715 166.566 19.9481C166.566 19.3247 166.776 18.4935 166.986 17.4546C167.196 16.2078 167.406 15.3766 167.616 14.7533ZM169.297 4.15587C169.297 3.94808 169.297 3.74028 169.087 3.74028C169.087 3.74028 168.877 3.74028 168.877 3.94808C168.877 3.94808 168.877 3.94808 169.087 3.94808L169.297 4.15587H169.087H169.297H169.087C169.087 3.94808 169.087 3.94808 169.297 4.15587ZM168.877 4.36366C168.877 4.15587 168.877 4.15587 168.877 3.94808C169.087 3.94808 169.087 4.15587 168.877 4.36366Z" fill="#0095D0"/>
<path d="M183.37 22.4416C183.37 22.4416 183.58 22.4416 183.79 22.4416C184 22.4416 184 22.4416 184 22.6494C184 22.8572 183.79 22.8572 183.37 23.065C181.69 23.6883 180.009 24.7273 178.329 25.7663C177.699 26.1818 176.858 26.8052 176.228 27.4286C176.438 27.6364 176.438 27.8442 176.648 28.052C177.489 27.4286 177.909 26.8052 178.329 26.5974C178.749 26.1818 179.379 25.7663 180.429 25.3507C180.849 25.1429 181.059 24.9351 181.479 24.7273C181.9 24.5195 182.32 24.3117 182.32 24.5195V24.7273C182.32 24.7273 182.32 24.7273 182.11 24.9351C182.11 24.9351 181.9 24.9351 181.9 25.1429C181.9 25.1429 181.9 25.1429 181.69 25.1429C181.269 25.3507 180.849 25.5585 180.639 25.7663C180.009 26.1818 179.169 26.5974 178.539 27.2208C177.909 27.8442 177.279 28.2598 176.648 28.8831C176.858 29.2987 177.069 29.7143 177.279 30.1299C177.699 31.1688 177.909 32 177.699 32.8312C177.699 33.4546 177.279 34.2857 176.858 34.9091C175.598 36.5714 174.338 37.4026 173.078 37.4026C172.237 37.4026 171.607 36.7792 171.187 35.9481C170.977 35.3247 170.977 34.4935 171.187 33.2468C171.397 31.7922 172.237 30.3377 173.708 28.8831C173.498 28.6753 173.288 28.2598 173.288 28.2598C173.078 27.8442 172.448 27.013 172.027 26.1818C171.607 25.3507 171.187 24.7273 170.977 24.1039C170.347 22.4416 170.557 20.987 171.607 19.7403C171.817 19.5325 172.237 19.1169 172.868 18.4935C173.498 17.8701 174.128 17.4546 174.758 17.2468C176.438 16 177.909 15.7922 179.169 16.6234C179.799 17.039 180.219 17.6624 180.429 18.2857C180.639 19.1169 180.639 19.9481 180.219 20.5714V20.7792C180.009 21.1948 180.009 21.4026 179.799 21.6104C179.379 22.026 179.169 22.026 178.959 22.026C178.539 21.8182 178.539 21.6104 178.539 21.1948C178.749 20.3637 178.749 19.9481 178.749 19.9481C178.749 19.5325 178.749 19.1169 178.539 18.7013C178.329 18.0779 177.489 18.0779 176.438 18.2857C175.808 18.4935 174.968 18.9091 174.128 19.7403C173.708 20.1559 173.288 20.5714 173.078 20.987C172.868 21.4026 172.868 22.026 173.078 22.6494C173.288 23.4805 173.708 24.3117 174.128 25.1429C174.338 25.3507 174.548 25.7663 174.758 26.1818C174.968 26.5974 175.178 26.8052 175.388 27.013C175.598 26.8052 176.018 26.5974 176.228 26.3896C176.438 26.1818 176.858 25.974 177.279 25.5585C177.699 25.3507 177.909 25.1429 178.119 24.9351C178.539 24.5195 179.379 24.1039 180.639 23.6883C180.639 23.6883 181.059 23.4805 181.69 23.2727C182.53 22.8572 183.16 22.6494 183.37 22.4416ZM176.438 33.4546C176.648 33.039 176.648 32.6234 176.648 32C176.648 31.3766 176.228 30.5455 175.808 29.5065C176.018 29.9221 176.228 30.1299 176.228 30.5455C176.648 31.3766 176.648 32.2078 176.228 32.8312C176.228 33.039 176.018 33.2468 175.598 33.6624C175.388 34.0779 174.968 34.2857 174.758 34.4935C174.338 34.9091 173.918 35.1169 173.498 35.1169C172.868 35.1169 172.658 34.7013 172.658 33.8701C172.658 32.4156 173.288 31.1689 174.548 29.7143C174.548 29.7143 174.548 29.7143 174.758 29.5065C174.758 29.2987 174.548 29.0909 174.338 28.8831C174.128 29.0909 174.128 29.2987 173.918 29.2987C173.498 29.9221 172.868 30.7533 172.448 31.7922C172.027 33.039 171.817 33.8701 172.027 34.4935C172.027 34.9091 172.237 35.3247 172.658 35.5325C173.078 35.7403 173.288 35.7403 173.708 35.7403C174.338 35.5325 174.968 35.1169 175.598 34.4935C176.018 34.2857 176.438 33.8701 176.438 33.4546ZM173.078 25.1429C173.288 25.5585 173.498 25.974 173.918 26.5974C174.128 27.013 174.548 27.6364 174.758 27.8442C174.758 27.8442 174.758 27.8442 174.968 27.8442C174.758 27.6364 174.548 27.2208 174.338 27.013C174.128 26.8052 173.918 26.3896 173.708 25.974C173.288 25.7663 173.078 25.3507 173.078 25.1429ZM174.758 33.8701C175.388 33.2468 175.598 32.6234 175.598 32.2078C175.598 31.7922 175.388 31.3766 175.178 30.7533C174.758 31.3766 174.338 32 174.128 32.6234C173.918 33.039 173.918 33.4546 173.708 33.6624C173.708 33.8702 173.708 34.0779 173.498 34.2857C173.498 34.4935 173.498 34.7013 173.498 34.7013C173.708 34.7013 174.128 34.4935 174.758 33.8701ZM175.388 29.2987C175.388 29.0909 175.388 29.2987 175.388 29.2987C175.388 28.8831 175.178 28.6753 175.178 28.4676C175.178 28.4676 175.178 28.4676 175.178 28.6753C175.178 28.6753 175.178 28.8831 175.388 29.2987Z" fill="#0095D0"/>
</g>
<defs>
<clipPath id="clip0_1301_1287">
<rect width="184" height="48" fill="white"/>
</clipPath>
</defs>
</svg>
