<svg width="48" height="37" viewBox="0 0 48 37" fill="none" xmlns="http://www.w3.org/2000/svg">
<path fill-rule="evenodd" clip-rule="evenodd" d="M6.34702 16.5671L3.78577 16.5825L7.33683 1.84129L9.99 1.63727L6.34702 16.5671Z" fill="#EBEFFA"/>
<path fill-rule="evenodd" clip-rule="evenodd" d="M13.3421 1.37722L7.78082 16.5621L10.4798 16.5467L11.3879 13.8383L13.1432 13.8077L12.7349 16.5365L15.439 16.5213L17.2657 1.07111L13.3421 1.37722ZM12.1124 11.5633L14.4747 4.59579L13.4492 11.5225L12.1124 11.5633Z" fill="#EBEFFA"/>
<path fill-rule="evenodd" clip-rule="evenodd" d="M27.8936 0.249971L24.4647 6.09527L23.9494 0.555926L21.026 0.780493L16.9852 16.5161L19.8217 16.5009L22.1281 7.7124L22.7453 12.6345L26.0413 7.53896L23.6689 16.4855L26.6893 16.4702L31.1332 0L27.8936 0.249971Z" fill="#EBEFFA"/>
<path fill-rule="evenodd" clip-rule="evenodd" d="M0 32.7824L2.25522 32.956L3.66337 27.2992L3.87749 33.0833L5.87247 33.2364L9.50024 18.6382L7.0102 18.628L5.62243 24.2641L5.54086 18.6228L3.42353 18.6126L0 32.7824Z" fill="#4BAFFF"/>
<path fill-rule="evenodd" clip-rule="evenodd" d="M12.8319 18.6586L7.30109 33.3538L9.98485 33.5629L10.8879 30.936L12.6329 31.0481L12.2247 33.7363L14.9185 33.9454L16.735 18.679L12.8319 18.6586ZM11.6124 28.7275L13.9594 21.9689L12.939 28.7988L11.6124 28.7275Z" fill="#4BAFFF"/>
<path fill-rule="evenodd" clip-rule="evenodd" d="M26.026 21.8771L22.684 21.7393C22.373 21.7343 22.2351 21.821 22.1383 22.2087L19.929 30.6758C19.7963 31.1604 19.9494 31.3644 20.3474 31.39L23.5872 31.594L22.5311 34.5371L18.7554 34.2463C17.4799 34.1495 16.4238 33.2619 16.9443 31.2829L19.8575 20.1633C20.1637 19.0055 20.7554 18.7045 21.6994 18.7095L27.2403 18.7401L26.026 21.8771Z" fill="#4BAFFF"/>
<path fill-rule="evenodd" clip-rule="evenodd" d="M32.6537 35.3175L29.4954 35.0726L31.3831 28.2633L29.7914 28.1866L27.9138 34.9451L24.8832 34.7105L29.2251 18.7451L32.3781 18.7605L30.5822 25.3201L32.1894 25.3761L34.0311 18.7707L37.3221 18.786L32.6537 35.3175Z" fill="#4BAFFF"/>
<path fill-rule="evenodd" clip-rule="evenodd" d="M42.108 22.0098L39.0416 32.5581C38.9753 32.8131 39.0874 32.9814 39.358 33.0019L40.2457 33.0579C40.5213 33.0783 40.7254 32.9252 40.7968 32.6702L43.8835 22.0657C43.9549 21.8056 43.8579 21.6119 43.5315 21.6067L42.6437 21.5914C42.2917 21.5863 42.1794 21.775 42.108 22.0098V22.0098ZM46.3529 18.8318C47.4855 18.8372 48.0671 19.8112 47.7765 20.8568L43.7865 34.3485C43.3631 35.7511 42.2253 36.0674 41.067 35.9755L37.0262 35.6644C35.8987 35.5777 35.0466 34.6595 35.4394 33.2569L39.0874 20.459C39.3376 19.4797 40.1079 18.8014 41.2303 18.8064L46.3529 18.8318Z" fill="#4BAFFF"/>
</svg>
